<?xml version="1.0" encoding="UTF-8" standalone="no"?>
<svg width="924px" height="405px" xmlns="http://www.w3.org/2000/svg" version="1.1">
    <title>Slice 1</title>
    <description>Created with Sketch (http://www.bohemiancoding.com/sketch)</description>
    <defs>
        <linearGradient id="gradient-1" x1="50%" y1="0%" x2="50%" y2="100%">
            <stop offset="0%" style="stop-color:rgb(255,255,255); stop-opacity:100"></stop>
            <stop offset="100%" style="stop-color:rgb(0,0,0); stop-opacity:100"></stop>
        </linearGradient>
        <linearGradient id="gradient-2" x1="50%" y1="0%" x2="50%" y2="100%">
            <stop offset="0%" style="stop-color:rgb(255,255,255); stop-opacity:100"></stop>
            <stop offset="100%" style="stop-color:rgb(0,0,0); stop-opacity:100"></stop>
        </linearGradient>
        <linearGradient id="gradient-3" x1="50%" y1="0%" x2="50%" y2="100%">
            <stop offset="0%" style="stop-color:rgb(255,255,255); stop-opacity:100"></stop>
            <stop offset="100%" style="stop-color:rgb(0,0,0); stop-opacity:100"></stop>
        </linearGradient>
        <linearGradient id="gradient-4" x1="50%" y1="0%" x2="50%" y2="100%">
            <stop offset="0%" style="stop-color:rgb(255,255,255); stop-opacity:100"></stop>
            <stop offset="100%" style="stop-color:rgb(0,0,0); stop-opacity:100"></stop>
        </linearGradient>
        <linearGradient id="gradient-5" x1="50%" y1="0%" x2="50%" y2="100%">
            <stop offset="0%" style="stop-color:rgb(255,255,255); stop-opacity:100"></stop>
            <stop offset="100%" style="stop-color:rgb(0,0,0); stop-opacity:100"></stop>
        </linearGradient>
        <linearGradient id="gradient-6" x1="50%" y1="0%" x2="50%" y2="100%">
            <stop offset="0%" style="stop-color:rgb(255,255,255); stop-opacity:100"></stop>
            <stop offset="100%" style="stop-color:rgb(0,0,0); stop-opacity:100"></stop>
        </linearGradient>
        <linearGradient id="gradient-7" x1="50%" y1="0%" x2="50%" y2="100%">
            <stop offset="0%" style="stop-color:rgb(255,255,255); stop-opacity:100"></stop>
            <stop offset="100%" style="stop-color:rgb(0,0,0); stop-opacity:100"></stop>
        </linearGradient>
        <linearGradient id="gradient-8" x1="50%" y1="0%" x2="50%" y2="100%">
            <stop offset="0%" style="stop-color:rgb(255,255,255); stop-opacity:100"></stop>
            <stop offset="100%" style="stop-color:rgb(0,0,0); stop-opacity:100"></stop>
        </linearGradient>
        <linearGradient id="gradient-9" x1="50%" y1="0%" x2="50%" y2="100%">
            <stop offset="0%" style="stop-color:rgb(255,255,255); stop-opacity:100"></stop>
            <stop offset="100%" style="stop-color:rgb(0,0,0); stop-opacity:100"></stop>
        </linearGradient>
        <linearGradient id="gradient-10" x1="50%" y1="0%" x2="50%" y2="100%">
            <stop offset="0%" style="stop-color:rgb(255,255,255); stop-opacity:100"></stop>
            <stop offset="100%" style="stop-color:rgb(0,0,0); stop-opacity:100"></stop>
        </linearGradient>
        <linearGradient id="gradient-11" x1="50%" y1="0%" x2="50%" y2="100%">
            <stop offset="0%" style="stop-color:rgb(255,255,255); stop-opacity:100"></stop>
            <stop offset="100%" style="stop-color:rgb(0,0,0); stop-opacity:100"></stop>
        </linearGradient>
        <linearGradient id="gradient-12" x1="50%" y1="0%" x2="50%" y2="100%">
            <stop offset="0%" style="stop-color:rgb(255,255,255); stop-opacity:100"></stop>
            <stop offset="100%" style="stop-color:rgb(0,0,0); stop-opacity:100"></stop>
        </linearGradient>
        <linearGradient id="gradient-13" x1="50%" y1="0%" x2="50%" y2="100%">
            <stop offset="0%" style="stop-color:rgb(255,255,255); stop-opacity:100"></stop>
            <stop offset="100%" style="stop-color:rgb(0,0,0); stop-opacity:100"></stop>
        </linearGradient>
        <linearGradient id="gradient-14" x1="50%" y1="0%" x2="50%" y2="100%">
            <stop offset="0%" style="stop-color:rgb(255,255,255); stop-opacity:100"></stop>
            <stop offset="100%" style="stop-color:rgb(0,0,0); stop-opacity:100"></stop>
        </linearGradient>
        <linearGradient id="gradient-15" x1="50%" y1="0%" x2="50%" y2="100%">
            <stop offset="0%" style="stop-color:rgb(255,255,255); stop-opacity:100"></stop>
            <stop offset="100%" style="stop-color:rgb(0,0,0); stop-opacity:100"></stop>
        </linearGradient>
    </defs>
    <g fill="rgb(215,215,215)" id="Page 1">
        <g fill="rgb(51,51,51)" id="rack"></g>
        <path id="rack" d="M323,179 C321,183 320,189 318,196 C317,204 317,209 317,212 L317,221 C317,224 318,226 319,228 C321,229 323,230 326,230 C337,230 342,226 343,217 L350,169 C348,167 346,167 344,167 C342,167 339,167 336,168 C333,168 331,169 329,171 C327,172 325,175 323,179 Z M339,131 C371,131 392,136 403,147 L385,268 L346,268 L339,255 C333,265 322,270 303,270 C290,270 280,262 273,247 C269,239 267,230 267,220 C267,210 268,200 270,191 C272,182 274,174 277,168 C279,162 282,157 285,153 C287,149 290,145 294,142 C298,140 301,137 304,136 C308,134 311,133 316,133 C322,131 330,131 339,131 Z M465,131 C492,131 513,134 529,140 L524,169 C514,168 504,167 494,167 C484,167 478,168 476,168 C473,168 471,170 468,172 C466,174 464,177 463,182 C460,191 458,199 458,206 C457,213 457,217 457,219 C457,220 457,222 457,224 C458,226 458,227 459,229 C459,230 461,231 463,232 C465,232 470,233 477,233 C490,233 502,232 512,231 L516,231 L512,260 C503,264 494,267 485,268 C476,269 468,270 460,270 L443,270 C430,269 420,263 413,250 C409,242 407,233 407,223 C407,213 408,202 410,191 C412,180 414,170 418,161 C421,153 426,146 431,142 C436,138 441,135 446,133 C451,132 458,131 465,131 Z M239,138 C245,134 251,132 257,132 C263,132 267,133 269,134 L262,181 L242,181 C231,181 224,183 222,187 C220,190 219,192 218,196 L207,268 L158,268 L179,134 L223,134 L226,151 C229,146 233,141 239,138 Z M524,268 L556,70 L605,70 L588,178 C606,170 619,155 626,134 L677,134 C673,151 667,164 660,173 C653,183 645,190 636,195 L669,268 L616,268 L592,212 L583,212 L574,268 Z M524,268" fill="rgb(51,51,51)"></path>
        <path id="rack decoration" d="" fill="rgb(51,51,51)"></path>
        <g fill="rgb(51,51,51)" id="["></g>
        <path id="[" d="M53,218 C53,226 57,231 66,231 L75,231 L68,270 L44,270 C36,270 30,268 24,266 C19,263 14,259 11,255 C6,246 3,236 3,225 C3,220 3,214 4,206 L31,47 C33,31 39,19 48,13 C57,6 71,3 90,3 L111,3 L105,42 L97,42 C92,42 88,43 85,46 C81,49 79,54 78,62 L54,211 C53,214 53,216 53,218 C53,218 53,216 53,218 L53,218 L53,218 Z M53,218" fill="rgb(51,51,51)"></path>
        <path id="[ decoration" d="" fill="rgb(51,51,51)"></path>
        <g fill="rgb(51,51,51)" id="]"></g>
        <path id="]" d="M57,363 C63,363 67,361 70,358 C73,355 75,350 77,343 L100,194 C101,191 101,189 101,188 C101,178 96,174 87,174 L80,174 L86,135 L108,135 C124,135 136,140 143,151 C148,159 151,169 151,181 C151,185 150,190 150,194 L127,357 C125,371 120,382 111,390 C103,398 89,402 69,402 L44,402 L50,363 L50,363 L57,363 L57,363 Z M57,363" fill="rgb(51,51,51)"></path>
        <path id="] decoration" d="" fill="rgb(51,51,51)"></path>
        <g fill="rgb(51,51,51)" id="t"></g>
        <path id="t" d="M885,212 C885,217 884,221 884,224 C884,227 885,229 885,231 C886,233 887,235 890,237 C897,240 901,242 902,242 L897,271 L867,271 C856,271 847,267 840,259 C836,253 833,245 833,235 C833,231 834,227 834,222 L843,169 L824,169 L828,145 L848,135 L861,98 L903,98 L897,135 L920,135 L914,169 L892,169 L892,169 L885,212 L885,212 Z M885,212" fill="rgb(51,51,51)"></path>
        <path id="t decoration" d="" fill="rgb(51,51,51)"></path>
        <g fill="rgb(159,14,0)" id="3"></g>
        <path id="3" d="M723,227 L739,227 C744,227 748,227 752,226 C757,226 761,224 764,223 C768,221 771,218 773,215 C775,211 776,207 776,202 C776,195 773,189 768,184 C762,180 755,178 747,178 C740,178 734,180 729,184 C724,188 721,193 719,199 L666,188 C668,178 672,170 677,163 C682,155 689,150 696,145 C703,141 711,138 720,136 C728,134 737,133 747,133 C757,133 767,134 776,136 C786,139 794,143 801,148 C808,154 814,160 818,168 C822,176 824,186 824,197 C824,210 821,221 814,230 C808,239 798,245 785,247 L785,248 C792,249 798,251 804,254 C809,258 813,262 817,266 C821,271 823,277 825,283 C827,289 828,295 828,302 C828,313 826,323 822,332 C817,341 811,348 804,354 C796,359 788,364 778,367 C768,369 757,371 746,371 C725,371 708,366 693,356 C678,347 668,332 664,311 L715,299 C717,307 720,314 725,319 C731,323 738,326 749,326 C759,326 767,323 772,318 C777,312 780,305 780,296 C780,290 778,285 776,281 C773,278 770,275 765,273 C761,271 756,270 751,270 C745,270 740,270 735,270 L723,270 L723,270 L723,227 L723,227 Z M723,227" fill="rgb(159,14,0)"></path>
        <path id="3 decoration" d="" fill="rgb(159,14,0)"></path>
    </g>
</svg>